<svg width="33" height="31" viewBox="0 0 33 31" fill="none" xmlns="http://www.w3.org/2000/svg">
<g clip-path="url(#clip0_287_6402)">
<path d="M27.5654 5.36764C25.542 4.46104 23.3722 3.7931 21.1035 3.41054C21.0622 3.40316 21.0209 3.42161 20.9996 3.45851C20.7206 3.94316 20.4114 4.57543 20.195 5.07239C17.7549 4.71568 15.3273 4.71568 12.9372 5.07239C12.7207 4.56439 12.4003 3.94316 12.12 3.45851C12.0987 3.42284 12.0575 3.40439 12.0162 3.41054C9.74871 3.79188 7.57889 4.45982 5.5542 5.36764C5.53667 5.37501 5.52165 5.38733 5.51168 5.40331C1.39597 11.4074 0.268504 17.264 0.821601 23.0479C0.824103 23.0762 0.840371 23.1033 0.862895 23.1205C3.57832 25.0677 6.20868 26.2499 8.79018 27.0334C8.8315 27.0458 8.87528 27.031 8.90157 26.9978C9.51222 26.1835 10.0566 25.3249 10.5233 24.4219C10.5508 24.3691 10.5245 24.3063 10.4683 24.2854C9.60483 23.9656 8.78267 23.5756 7.99182 23.1328C7.92927 23.0971 7.92426 23.0098 7.9818 22.968C8.14823 22.8462 8.3147 22.7195 8.47361 22.5915C8.50236 22.5682 8.54243 22.5632 8.57623 22.578C13.7718 24.8943 19.3966 24.8943 24.5309 22.578C24.5647 22.562 24.6048 22.567 24.6348 22.5903C24.7937 22.7183 24.9601 22.8462 25.1278 22.968C25.1854 23.0098 25.1816 23.0971 25.1191 23.1328C24.3282 23.5842 23.506 23.9656 22.6414 24.2842C22.5851 24.3051 22.56 24.3691 22.5876 24.4219C23.0643 25.3236 23.6087 26.1822 24.2081 26.9966C24.2331 27.031 24.2781 27.0458 24.3194 27.0334C26.9135 26.2499 29.5438 25.0677 32.2592 23.1205C32.283 23.1033 32.298 23.0775 32.3005 23.0492C32.9625 16.3623 31.1918 10.5538 27.6067 5.40453C27.5979 5.38733 27.583 5.37501 27.5654 5.36764ZM11.2992 19.5261C9.73494 19.5261 8.44607 18.1238 8.44607 16.4017C8.44607 14.6795 9.70995 13.2772 11.2992 13.2772C12.9009 13.2772 14.1773 14.6918 14.1522 16.4017C14.1522 18.1238 12.8883 19.5261 11.2992 19.5261ZM21.848 19.5261C20.2838 19.5261 18.995 18.1238 18.995 16.4017C18.995 14.6795 20.2588 13.2772 21.848 13.2772C23.4498 13.2772 24.7261 14.6918 24.7011 16.4017C24.7011 18.1238 23.4498 19.5261 21.848 19.5261Z" fill="url(#paint0_linear_287_6402)"/>
</g>
<defs>
<linearGradient id="paint0_linear_287_6402" x1="16.5638" y1="3.40894" x2="16.5638" y2="27.0378" gradientUnits="userSpaceOnUse">
<stop stop-color="#CC00FF"/>
<stop offset="1" stop-color="#320071"/>
</linearGradient>
<clipPath id="clip0_287_6402">
<rect width="31.7468" height="31" fill="white" transform="translate(0.69046)"/>
</clipPath>
</defs>
</svg>
