<svg width="32" height="31" viewBox="0 0 32 31" fill="none" xmlns="http://www.w3.org/2000/svg">
<g clip-path="url(#clip0_287_6390)">
<path d="M31.7468 15.5C31.7468 6.93958 24.6401 0 15.8734 0C7.10676 0 0 6.93958 0 15.5C0 23.2364 5.80465 29.6489 13.3932 30.8117V19.9805H9.36283V15.5H13.3932V12.0852C13.3932 8.20047 15.763 6.05469 19.3888 6.05469C21.125 6.05469 22.942 6.35742 22.942 6.35742V10.1719H20.9405C18.9687 10.1719 18.3536 11.3668 18.3536 12.5938V15.5H22.756L22.0523 19.9805H18.3536V30.8117C25.9422 29.6489 31.7468 23.2364 31.7468 15.5Z" fill="url(#paint0_linear_287_6390)"/>
<path d="M22.0523 19.9805L22.756 15.5H18.3536V12.5938C18.3536 11.368 18.9687 10.1719 20.9405 10.1719H22.942V6.35742C22.942 6.35742 21.1256 6.05469 19.3888 6.05469C15.763 6.05469 13.3932 8.20047 13.3932 12.0852V15.5H9.36284V19.9805H13.3932V30.8117C15.0367 31.0628 16.7102 31.0628 18.3536 30.8117V19.9805H22.0523Z" fill="white"/>
</g>
<defs>
<linearGradient id="paint0_linear_287_6390" x1="15.8734" y1="0" x2="15.8734" y2="30.8117" gradientUnits="userSpaceOnUse">
<stop stop-color="#CC00FF"/>
<stop offset="1" stop-color="#320071"/>
</linearGradient>
<clipPath id="clip0_287_6390">
<rect width="31.7468" height="31" fill="white"/>
</clipPath>
</defs>
</svg>
