<svg width="33" height="31" viewBox="0 0 33 31" fill="none" xmlns="http://www.w3.org/2000/svg">
<g clip-path="url(#clip0_287_6413)">
<path d="M16.4369 2.79121C20.6781 2.79121 21.1804 2.80937 22.8483 2.88203C24.3984 2.94863 25.2355 3.20293 25.7936 3.41484C26.5314 3.69336 27.0647 4.03242 27.6165 4.57129C28.1746 5.11621 28.5156 5.63086 28.8008 6.35137C29.0178 6.89629 29.2783 7.71973 29.3465 9.22734C29.4209 10.8621 29.4395 11.3525 29.4395 15.4879C29.4395 19.6293 29.4209 20.1197 29.3465 21.7484C29.2783 23.2621 29.0178 24.0795 28.8008 24.6244C28.5156 25.3449 28.1684 25.8656 27.6165 26.4045C27.0585 26.9494 26.5314 27.2824 25.7936 27.5609C25.2355 27.7729 24.3922 28.0271 22.8483 28.0938C21.1742 28.1664 20.6719 28.1846 16.4369 28.1846C12.1958 28.1846 11.6935 28.1664 10.0256 28.0938C8.47542 28.0271 7.63834 27.7729 7.0803 27.5609C6.34243 27.2824 5.80918 26.9434 5.25733 26.4045C4.69928 25.8596 4.35825 25.3449 4.07303 24.6244C3.85601 24.0795 3.59558 23.2561 3.52738 21.7484C3.45297 20.1137 3.43437 19.6232 3.43437 15.4879C3.43437 11.3465 3.45297 10.8561 3.52738 9.22734C3.59558 7.71367 3.85601 6.89629 4.07303 6.35137C4.35825 5.63086 4.70548 5.11016 5.25733 4.57129C5.81538 4.02637 6.34243 3.69336 7.0803 3.41484C7.63834 3.20293 8.48162 2.94863 10.0256 2.88203C11.6935 2.80937 12.1958 2.79121 16.4369 2.79121ZM16.4369 0C12.1275 0 11.5881 0.0181641 9.89535 0.0908203C8.2088 0.163477 7.04929 0.429883 6.0448 0.811328C4.99691 1.21094 4.11023 1.7377 3.22975 2.60352C2.34307 3.46328 1.80363 4.3291 1.39439 5.34629C1.00375 6.3332 0.73093 7.45937 0.656523 9.10625C0.582116 10.7652 0.563515 11.292 0.563515 15.5C0.563515 19.708 0.582116 20.2348 0.656523 21.8877C0.73093 23.5346 1.00375 24.6668 1.39439 25.6477C1.80363 26.6709 2.34307 27.5367 3.22975 28.3965C4.11023 29.2562 4.99691 29.7891 6.0386 30.1826C7.04929 30.5641 8.20259 30.8305 9.88914 30.9031C11.5819 30.9758 12.1213 30.9939 16.4307 30.9939C20.7401 30.9939 21.2796 30.9758 22.9723 30.9031C24.6589 30.8305 25.8184 30.5641 26.8229 30.1826C27.8645 29.7891 28.7512 29.2562 29.6317 28.3965C30.5122 27.5367 31.0578 26.6709 31.4609 25.6537C31.8515 24.6668 32.1243 23.5406 32.1987 21.8938C32.2731 20.2408 32.2917 19.7141 32.2917 15.5061C32.2917 11.298 32.2731 10.7713 32.1987 9.11836C32.1243 7.47148 31.8515 6.33926 31.4609 5.3584C31.0702 4.3291 30.5308 3.46328 29.6441 2.60352C28.7636 1.74375 27.8769 1.21094 26.8353 0.817383C25.8246 0.435937 24.6713 0.169531 22.9847 0.096875C21.2858 0.0181641 20.7463 0 16.4369 0Z" fill="url(#paint0_linear_287_6413)"/>
<path d="M16.4369 7.53809C11.9353 7.53809 8.2832 11.1043 8.2832 15.5C8.2832 19.8957 11.9353 23.4619 16.4369 23.4619C20.9385 23.4619 24.5906 19.8957 24.5906 15.5C24.5906 11.1043 20.9385 7.53809 16.4369 7.53809ZM16.4369 20.6646C13.5165 20.6646 11.1479 18.3518 11.1479 15.5C11.1479 12.6482 13.5165 10.3354 16.4369 10.3354C19.3574 10.3354 21.726 12.6482 21.726 15.5C21.726 18.3518 19.3574 20.6646 16.4369 20.6646Z" fill="url(#paint1_linear_287_6413)"/>
<path d="M26.8166 7.22329C26.8166 8.25259 25.961 9.08209 24.9131 9.08209C23.859 9.08209 23.0095 8.24654 23.0095 7.22329C23.0095 6.194 23.8652 5.3645 24.9131 5.3645C25.961 5.3645 26.8166 6.20005 26.8166 7.22329Z" fill="url(#paint2_linear_287_6413)"/>
</g>
<defs>
<linearGradient id="paint0_linear_287_6413" x1="16.4276" y1="0" x2="16.4276" y2="30.9939" gradientUnits="userSpaceOnUse">
<stop stop-color="#CC00FF"/>
<stop offset="1" stop-color="#320071"/>
</linearGradient>
<linearGradient id="paint1_linear_287_6413" x1="16.4369" y1="7.53809" x2="16.4369" y2="23.4619" gradientUnits="userSpaceOnUse">
<stop stop-color="#CC00FF"/>
<stop offset="1" stop-color="#320071"/>
</linearGradient>
<linearGradient id="paint2_linear_287_6413" x1="24.9131" y1="5.3645" x2="24.9131" y2="9.08209" gradientUnits="userSpaceOnUse">
<stop stop-color="#CC00FF"/>
<stop offset="1" stop-color="#320071"/>
</linearGradient>
<clipPath id="clip0_287_6413">
<rect width="31.7468" height="31" fill="white" transform="translate(0.563484)"/>
</clipPath>
</defs>
</svg>
