<svg width="33" height="31" viewBox="0 0 33 31" fill="none" xmlns="http://www.w3.org/2000/svg">
<g clip-path="url(#clip0_287_6395)">
<rect x="3.57187" y="2.09497" width="25.7444" height="26.5354" fill="white"/>
<rect x="3.57187" y="2.09497" width="25.7444" height="26.5354" fill="white"/>
<path d="M29.8114 0H2.75168C2.13014 0 1.53405 0.241099 1.09456 0.670258C0.655057 1.09942 0.40815 1.68148 0.40815 2.2884V28.7116C0.40815 29.3185 0.655057 29.9006 1.09456 30.3297C1.53405 30.7589 2.13014 31 2.75168 31H29.8114C30.433 31 31.0291 30.7589 31.4686 30.3297C31.9081 29.9006 32.155 29.3185 32.155 28.7116V2.2884C32.155 1.68148 31.9081 1.09942 31.4686 0.670258C31.0291 0.241099 30.433 0 29.8114 0ZM9.87047 24.0216C9.87047 25.3396 8.80198 26.4081 7.48394 26.4081C6.1659 26.4081 5.09742 25.3396 5.09742 24.0216V13.99C5.09742 12.672 6.1659 11.6035 7.48394 11.6035C8.80198 11.6035 9.87047 12.672 9.87047 13.99V24.0216ZM7.48064 9.55188C6.93922 9.5489 6.41083 9.38938 5.96217 9.09345C5.51351 8.79751 5.16467 8.37844 4.95969 7.8891C4.75471 7.39976 4.70276 6.8621 4.81042 6.34396C4.91807 5.82583 5.18049 5.35044 5.56457 4.9778C5.94864 4.60516 6.43716 4.35197 6.96845 4.25018C7.49975 4.14839 8.05002 4.20256 8.54982 4.40586C9.04962 4.60915 9.47655 4.95247 9.77672 5.39247C10.0769 5.83247 10.2369 6.34943 10.2364 6.87813C10.2415 7.23209 10.1736 7.58343 10.0367 7.91121C9.89981 8.23899 9.69672 8.5365 9.43955 8.786C9.18239 9.03551 8.87642 9.23191 8.53987 9.36349C8.20332 9.49507 7.84308 9.55913 7.48064 9.55188ZM27.4641 24.0359C27.4638 25.3533 26.3957 26.421 25.0784 26.421C23.7608 26.421 22.6927 25.3529 22.6927 24.0353V18.3331C22.6927 15.9478 21.6543 15.2115 20.3139 15.2115C18.8985 15.2115 17.5095 16.2535 17.5095 18.3933V24.0345C17.5095 25.3526 16.4411 26.421 15.123 26.421C13.805 26.421 12.7365 25.3526 12.7365 24.0345V13.9093C12.7365 12.6418 13.764 11.6142 15.0315 11.6142H16.3008C16.8673 11.6142 17.3266 12.0735 17.3266 12.64V13.6276C17.3266 13.6487 17.3437 13.6658 17.3648 13.6658C17.3792 13.6658 17.3921 13.6582 17.3988 13.6454C17.8731 12.7322 19.4812 11.1988 21.9254 11.1988C24.5887 11.1988 27.4657 12.7423 27.4657 17.2631L27.4641 24.0359Z" fill="url(#paint0_linear_287_6395)"/>
</g>
<defs>
<linearGradient id="paint0_linear_287_6395" x1="16.2816" y1="0" x2="16.2816" y2="31" gradientUnits="userSpaceOnUse">
<stop stop-color="#CC00FF"/>
<stop offset="1" stop-color="#320071"/>
</linearGradient>
<clipPath id="clip0_287_6395">
<rect x="0.408295" width="31.7468" height="31" rx="5" fill="white"/>
</clipPath>
</defs>
</svg>
