<svg width="32" height="31" viewBox="0 0 32 31" fill="none" xmlns="http://www.w3.org/2000/svg">
<g clip-path="url(#clip0_287_6409)">
<path d="M16.1268 31C24.8934 31 32.0002 24.0604 32.0002 15.5C32.0002 6.93959 24.8934 0 16.1268 0C7.36016 0 0.253387 6.93959 0.253387 15.5C0.253387 24.0604 7.36016 31 16.1268 31Z" fill="url(#paint0_linear_287_6409)"/>
<path fill-rule="evenodd" clip-rule="evenodd" d="M7.43861 15.3364C12.066 13.3678 15.1517 12.0699 16.6956 11.4428C21.1039 9.65244 22.0198 9.34143 22.6169 9.33116C22.7482 9.32891 23.0418 9.36068 23.232 9.51137C23.3926 9.63861 23.4367 9.81049 23.4579 9.93113C23.479 10.0518 23.5054 10.3266 23.4844 10.5413C23.2455 12.9922 22.2119 18.9399 21.686 21.685C21.4635 22.8465 21.0254 23.236 20.6012 23.2741C19.6794 23.357 18.9795 22.6793 18.0867 22.1078C16.6896 21.2135 15.9003 20.6569 14.5442 19.7842C12.977 18.7758 13.993 18.2215 14.8861 17.3157C15.1199 17.0786 19.1813 13.4713 19.26 13.1441C19.2698 13.1031 19.2789 12.9506 19.1861 12.87C19.0933 12.7895 18.9563 12.817 18.8574 12.8389C18.7173 12.87 16.4855 14.3104 12.1619 17.1603C11.5284 17.5851 10.9546 17.792 10.4405 17.7812C9.87377 17.7692 8.78355 17.4683 7.97308 17.211C6.979 16.8955 6.18893 16.7287 6.25773 16.1928C6.29357 15.9137 6.68719 15.6282 7.43861 15.3364Z" fill="white"/>
</g>
<defs>
<linearGradient id="paint0_linear_287_6409" x1="16.1268" y1="0" x2="16.1268" y2="31" gradientUnits="userSpaceOnUse">
<stop stop-color="#CC00FF"/>
<stop offset="1" stop-color="#320071"/>
</linearGradient>
<clipPath id="clip0_287_6409">
<rect width="31.7468" height="31" fill="white" transform="translate(0.253387)"/>
</clipPath>
</defs>
</svg>
