<svg width="32" height="31" viewBox="0 0 32 31" fill="none" xmlns="http://www.w3.org/2000/svg">
<path d="M22.8469 11.1904C24.8884 12.6205 27.3894 13.4619 30.0905 13.4619V8.36825C29.5793 8.36835 29.0695 8.31611 28.5693 8.21228V12.2217C25.8684 12.2217 23.3678 11.3803 21.3257 9.95027V20.3449C21.3257 25.5448 17.0241 29.7599 11.7182 29.7599C9.73837 29.7599 7.89825 29.1734 6.36966 28.1675C8.11429 29.9156 10.5473 31 13.239 31C18.5453 31 22.8471 26.7849 22.8471 21.5848V11.1904H22.8469ZM24.7235 6.05149C23.6802 4.9345 22.9951 3.491 22.8469 1.89514V1.23999H21.4053C21.7682 3.26832 23.0059 5.00121 24.7235 6.05149ZM9.72568 24.1772C9.14276 23.4282 8.82775 22.512 8.82916 21.5699C8.82916 19.1916 10.7967 17.2633 13.2241 17.2633C13.6764 17.2632 14.1261 17.3311 14.5572 17.4651V12.2577C14.0534 12.19 13.5449 12.1613 13.0367 12.1718V16.2251C12.6052 16.091 12.1553 16.0229 11.7029 16.0233C9.27547 16.0233 7.30806 17.9515 7.30806 20.33C7.30806 22.0118 8.29149 23.4679 9.72568 24.1772Z" fill="#FF0190"/>
<path d="M21.3257 9.95016C23.3678 11.3802 25.8684 12.2216 28.5693 12.2216V8.21217C27.0617 7.89747 25.727 7.12539 24.7235 6.05149C23.0058 5.0011 21.7682 3.26821 21.4054 1.23999H17.6188V21.5846C17.6102 23.9563 15.646 25.8768 13.2239 25.8768C11.7965 25.8768 10.5285 25.21 9.72537 24.1772C8.29129 23.4679 7.30785 22.0117 7.30785 20.3301C7.30785 17.9518 9.27526 16.0235 11.7026 16.0235C12.1677 16.0235 12.616 16.0944 13.0365 16.2252V12.1719C7.82371 12.2775 3.6314 16.4514 3.6314 21.5847C3.6314 24.1472 4.67538 26.4702 6.36978 28.1676C7.89837 29.1734 9.7385 29.76 11.7183 29.76C17.0243 29.76 21.3258 25.5447 21.3258 20.3449V9.95016H21.3257Z" fill="white"/>
<path d="M28.5694 8.21216V7.12804C27.2098 7.13006 25.877 6.75695 24.7235 6.05137C25.7446 7.14687 27.0892 7.90224 28.5694 8.21216ZM21.4054 1.23998C21.3708 1.04614 21.3442 0.851016 21.3257 0.655151V0H16.0975V20.3448C16.0891 22.7162 14.1251 24.6367 11.7027 24.6367C10.9915 24.6367 10.32 24.4713 9.7254 24.1773C10.5285 25.21 11.7965 25.8767 13.2239 25.8767C15.6459 25.8767 17.6103 23.9564 17.6188 21.5847V1.23998H21.4054ZM13.0367 12.1719V11.0178C12.5998 10.9593 12.1594 10.9299 11.7184 10.9301C6.41191 10.93 2.11033 15.1453 2.11033 20.3448C2.11033 23.6046 3.80093 26.4775 6.36992 28.1674C4.67552 26.4701 3.63154 24.147 3.63154 21.5846C3.63154 16.4513 7.82375 12.2774 13.0367 12.1719Z" fill="#B903FC"/>
</svg>
