<svg width="33" height="31" viewBox="0 0 33 31" fill="none" xmlns="http://www.w3.org/2000/svg">
<g clip-path="url(#clip0_287_6393)">
<path d="M10.6123 28.0946C22.5923 28.0946 29.1448 18.4028 29.1448 9.99807C29.1448 9.72279 29.1448 9.44875 29.1258 9.17595C30.4005 8.2756 31.5009 7.1608 32.3754 5.88375C31.1867 6.39835 29.9256 6.73568 28.6343 6.88443C29.9941 6.08965 31.0118 4.83944 31.4979 3.36655C30.2194 4.10746 28.8206 4.62958 27.3619 4.91035C26.3799 3.89068 25.081 3.21548 23.6664 2.98923C22.2518 2.76299 20.8002 2.99831 19.5364 3.65879C18.2725 4.31927 17.2668 5.36808 16.6749 6.64293C16.083 7.91777 15.9378 9.34757 16.2619 10.7111C13.6724 10.5842 11.1391 9.92707 8.82644 8.78226C6.51381 7.63744 4.47356 6.03056 2.83812 4.06591C2.0052 5.46607 1.75009 7.12358 2.12474 8.70096C2.49939 10.2783 3.47562 11.657 4.85468 12.5562C3.81808 12.5265 2.80405 12.2535 1.89841 11.7601V11.8407C1.89882 13.3091 2.41939 14.7322 3.37182 15.8686C4.32426 17.005 5.64991 17.7847 7.12394 18.0754C6.16503 18.3308 5.15891 18.3682 4.18291 18.1846C4.59929 19.4482 5.40965 20.5533 6.5007 21.3452C7.59174 22.1371 8.90894 22.5763 10.2681 22.6014C8.91769 23.638 7.37119 24.4043 5.71713 24.8567C4.06306 25.309 2.33389 25.4385 0.62854 25.2377C3.60723 27.1042 7.07305 28.0942 10.6123 28.0897" fill="url(#paint0_linear_287_6393)"/>
</g>
<defs>
<linearGradient id="paint0_linear_287_6393" x1="16.502" y1="2.90552" x2="16.502" y2="28.0946" gradientUnits="userSpaceOnUse">
<stop stop-color="#CC00FF"/>
<stop offset="1" stop-color="#320071"/>
</linearGradient>
<clipPath id="clip0_287_6393">
<rect width="31.7468" height="31" fill="white" transform="translate(0.628494)"/>
</clipPath>
</defs>
</svg>
