<svg width="33" height="31" viewBox="0 0 33 31" fill="none" xmlns="http://www.w3.org/2000/svg">
<g clip-path="url(#clip0_287_6399)">
<path d="M31.9601 7.98959C31.7807 7.33008 31.4269 6.72817 30.9344 6.2441C30.4418 5.76003 29.8277 5.41078 29.1534 5.23129C26.6714 4.57959 16.7505 4.57959 16.7505 4.57959C16.7505 4.57959 6.82965 4.57959 4.34762 5.23129C3.67339 5.41078 3.05926 5.76003 2.56669 6.2441C2.07413 6.72817 1.7204 7.33008 1.54091 7.98959C0.877117 10.4238 0.877117 15.5 0.877117 15.5C0.877117 15.5 0.877117 20.5763 1.54091 23.0105C1.7204 23.67 2.07413 24.2719 2.56669 24.756C3.05926 25.2401 3.67339 25.5893 4.34762 25.7688C6.82965 26.4205 16.7505 26.4205 16.7505 26.4205C16.7505 26.4205 26.6714 26.4205 29.1534 25.7688C29.8277 25.5893 30.4418 25.2401 30.9344 24.756C31.4269 24.2719 31.7807 23.67 31.9601 23.0105C32.6239 20.5763 32.6239 15.5 32.6239 15.5C32.6239 15.5 32.6239 10.4238 31.9601 7.98959Z" fill="url(#paint0_linear_287_6399)"/>
<path d="M13.5038 20.1096V10.8906L21.8013 15.5001L13.5038 20.1096Z" fill="#FEFEFE"/>
</g>
<defs>
<linearGradient id="paint0_linear_287_6399" x1="16.7505" y1="4.57959" x2="16.7505" y2="26.4205" gradientUnits="userSpaceOnUse">
<stop stop-color="#CC00FF"/>
<stop offset="1" stop-color="#320071"/>
</linearGradient>
<clipPath id="clip0_287_6399">
<rect width="31.7468" height="31" fill="white" transform="translate(0.845657)"/>
</clipPath>
</defs>
</svg>
